<svg width="20" height="20" viewBox="0 0 20 20" fill="none" xmlns="http://www.w3.org/2000/svg">
<path d="M14.3571 10.1429H11.1429V13.3571C11.1429 13.5276 11.0751 13.6912 10.9546 13.8117C10.834 13.9323 10.6705 14 10.5 14C10.3295 14 10.166 13.9323 10.0454 13.8117C9.92487 13.6912 9.85714 13.5276 9.85714 13.3571V10.1429H6.64286C6.47236 10.1429 6.30885 10.0751 6.18829 9.95457C6.06773 9.83401 6 9.6705 6 9.5C6 9.3295 6.06773 9.16599 6.18829 9.04543C6.30885 8.92487 6.47236 8.85714 6.64286 8.85714H9.85714V5.64286C9.85714 5.47236 9.92487 5.30885 10.0454 5.18829C10.166 5.06773 10.3295 5 10.5 5C10.6705 5 10.834 5.06773 10.9546 5.18829C11.0751 5.30885 11.1429 5.47236 11.1429 5.64286V8.85714H14.3571C14.5276 8.85714 14.6912 8.92487 14.8117 9.04543C14.9323 9.16599 15 9.3295 15 9.5C15 9.6705 14.9323 9.83401 14.8117 9.95457C14.6912 10.0751 14.5276 10.1429 14.3571 10.1429Z" fill="#6D6C67"/>
</svg>
