<svg width="20" height="20" viewBox="0 0 20 20" fill="none" xmlns="http://www.w3.org/2000/svg">
<g clip-path="url(#clip0_110_21)">
<path d="M11.14 5C11.3499 5.00005 11.5544 5.06614 11.7247 5.1889C11.8949 5.31166 12.0222 5.48488 12.0885 5.684L12.36 6.5H14C14.1326 6.5 14.2598 6.55268 14.3536 6.64645C14.4473 6.74021 14.5 6.86739 14.5 7C14.5 7.13261 14.4473 7.25979 14.3536 7.35355C14.2598 7.44732 14.1326 7.5 14 7.5L13.9985 7.5355L13.565 13.607C13.5379 13.9853 13.3686 14.3393 13.091 14.5978C12.8134 14.8562 12.4483 15 12.069 15H7.931C7.55173 15 7.18655 14.8562 6.90898 14.5978C6.63141 14.3393 6.46205 13.9853 6.435 13.607L6.0015 7.535C6.0006 7.52335 6.0001 7.51168 6 7.5C5.86739 7.5 5.74021 7.44732 5.64645 7.35355C5.55268 7.25979 5.5 7.13261 5.5 7C5.5 6.86739 5.55268 6.74021 5.64645 6.64645C5.74021 6.55268 5.86739 6.5 6 6.5H7.64L7.9115 5.684C7.97785 5.48479 8.10522 5.31153 8.27555 5.18876C8.44588 5.06599 8.65054 4.99995 8.8605 5H11.14ZM12.9985 7.5H7.0015L7.4325 13.5355C7.44148 13.6616 7.49789 13.7796 7.59038 13.8658C7.68287 13.952 7.80458 13.9999 7.931 14H12.069C12.1954 13.9999 12.3171 13.952 12.4096 13.8658C12.5021 13.7796 12.5585 13.6616 12.5675 13.5355L12.9985 7.5ZM9 9C9.12247 9.00002 9.24067 9.04498 9.33219 9.12636C9.4237 9.20774 9.48217 9.31987 9.4965 9.4415L9.5 9.5V12C9.49986 12.1274 9.45106 12.25 9.36358 12.3427C9.27609 12.4354 9.15652 12.4911 9.0293 12.4986C8.90208 12.5061 8.77681 12.4647 8.67908 12.3829C8.58136 12.3011 8.51855 12.185 8.5035 12.0585L8.5 12V9.5C8.5 9.36739 8.55268 9.24021 8.64645 9.14645C8.74021 9.05268 8.86739 9 9 9ZM11 9C11.1326 9 11.2598 9.05268 11.3536 9.14645C11.4473 9.24021 11.5 9.36739 11.5 9.5V12C11.5 12.1326 11.4473 12.2598 11.3536 12.3536C11.2598 12.4473 11.1326 12.5 11 12.5C10.8674 12.5 10.7402 12.4473 10.6464 12.3536C10.5527 12.2598 10.5 12.1326 10.5 12V9.5C10.5 9.36739 10.5527 9.24021 10.6464 9.14645C10.7402 9.05268 10.8674 9 11 9ZM11.14 6H8.86L8.6935 6.5H11.3065L11.14 6Z" fill="#6D6C67"/>
</g>
<defs>
<clipPath id="clip0_110_21">
<rect width="12" height="12" fill="white" transform="translate(4 4)"/>
</clipPath>
</defs>
</svg>
