<svg width="20" height="20" viewBox="0 0 20 20" fill="none" xmlns="http://www.w3.org/2000/svg">
<g clip-path="url(#clip0_110_21)">
<path d="M11.33 4.16663C11.5749 4.16669 11.8135 4.24379 12.0121 4.38701C12.2107 4.53024 12.3592 4.73231 12.4366 4.96463L12.7533 5.91663H14.6667C14.8214 5.91663 14.9697 5.97808 15.0791 6.08748C15.1885 6.19688 15.25 6.34525 15.25 6.49996C15.25 6.65467 15.1885 6.80304 15.0791 6.91244C14.9697 7.02183 14.8214 7.08329 14.6667 7.08329L14.6649 7.12471L14.1592 14.2081C14.1276 14.6495 13.93 15.0625 13.6062 15.364C13.2824 15.6656 12.8563 15.8332 12.4138 15.8333H7.58617C7.14368 15.8332 6.71765 15.6656 6.39381 15.364C6.06998 15.0625 5.8724 14.6495 5.84083 14.2081L5.33508 7.12413C5.33403 7.11054 5.33344 7.09692 5.33333 7.08329C5.17862 7.08329 5.03025 7.02183 4.92085 6.91244C4.81146 6.80304 4.75 6.65467 4.75 6.49996C4.75 6.34525 4.81146 6.19688 4.92085 6.08748C5.03025 5.97808 5.17862 5.91663 5.33333 5.91663H7.24667L7.56342 4.96463C7.64082 4.73222 7.78942 4.53007 7.98814 4.38684C8.18686 4.24361 8.42562 4.16657 8.67058 4.16663H11.33ZM13.4982 7.08329H6.50175L7.00458 14.1247C7.01506 14.2718 7.08087 14.4095 7.18878 14.5101C7.29668 14.6106 7.43867 14.6666 7.58617 14.6666H12.4138C12.5613 14.6666 12.7033 14.6106 12.8112 14.5101C12.9191 14.4095 12.9849 14.2718 12.9954 14.1247L13.4982 7.08329ZM8.83333 8.83329C8.97621 8.83331 9.11411 8.88577 9.22088 8.98071C9.32765 9.07565 9.39587 9.20648 9.41258 9.34838L9.41667 9.41663V12.3333C9.4165 12.482 9.35957 12.625 9.25751 12.7331C9.15544 12.8412 9.01594 12.9063 8.86752 12.915C8.7191 12.9237 8.57295 12.8754 8.45893 12.78C8.34492 12.6845 8.27164 12.5492 8.25408 12.4015L8.25 12.3333V9.41663C8.25 9.26192 8.31146 9.11354 8.42085 9.00415C8.53025 8.89475 8.67862 8.83329 8.83333 8.83329ZM11.1667 8.83329C11.3214 8.83329 11.4697 8.89475 11.5791 9.00415C11.6885 9.11354 11.75 9.26192 11.75 9.41663V12.3333C11.75 12.488 11.6885 12.6364 11.5791 12.7458C11.4697 12.8552 11.3214 12.9166 11.1667 12.9166C11.012 12.9166 10.8636 12.8552 10.7542 12.7458C10.6448 12.6364 10.5833 12.488 10.5833 12.3333V9.41663C10.5833 9.26192 10.6448 9.11354 10.7542 9.00415C10.8636 8.89475 11.012 8.83329 11.1667 8.83329ZM11.33 5.33329H8.67L8.47575 5.91663H11.5242L11.33 5.33329Z" fill="#6D6C67"/>
</g>
<defs>
<clipPath id="clip0_110_21">
<rect width="14" height="14" fill="white" transform="translate(3 3)"/>
</clipPath>
</defs>
</svg>
