<svg width="20" height="20" viewBox="0 0 20 20" fill="none" xmlns="http://www.w3.org/2000/svg">
<path d="M4 4.41667C4 4.04094 4.14926 3.68061 4.41493 3.41493C4.68061 3.14926 5.04094 3 5.41667 3H11.0833C11.2712 3.00004 11.4513 3.07469 11.5841 3.20754L15.1258 6.74921C15.2586 6.88202 15.3333 7.06215 15.3333 7.25V15.75C15.3333 16.1257 15.1841 16.4861 14.9184 16.7517C14.6527 17.0174 14.2924 17.1667 13.9167 17.1667H5.41667C5.04094 17.1667 4.68061 17.0174 4.41493 16.7517C4.14926 16.4861 4 16.1257 4 15.75V4.41667ZM13.6234 7.25L11.0833 4.70992V7.25H13.6234ZM9.66667 4.41667H5.41667V15.75H13.9167V8.66667H10.375C10.1871 8.66667 10.007 8.59204 9.87413 8.4592C9.74129 8.32636 9.66667 8.14619 9.66667 7.95833V4.41667ZM6.83333 10.7917C6.83333 10.6038 6.90796 10.4236 7.0408 10.2908C7.17364 10.158 7.35381 10.0833 7.54167 10.0833H11.7917C11.9795 10.0833 12.1597 10.158 12.2925 10.2908C12.4254 10.4236 12.5 10.6038 12.5 10.7917C12.5 10.9795 12.4254 11.1597 12.2925 11.2925C12.1597 11.4254 11.9795 11.5 11.7917 11.5H7.54167C7.35381 11.5 7.17364 11.4254 7.0408 11.2925C6.90796 11.1597 6.83333 10.9795 6.83333 10.7917ZM6.83333 13.625C6.83333 13.4371 6.90796 13.257 7.0408 13.1241C7.17364 12.9913 7.35381 12.9167 7.54167 12.9167H11.7917C11.9795 12.9167 12.1597 12.9913 12.2925 13.1241C12.4254 13.257 12.5 13.4371 12.5 13.625C12.5 13.8129 12.4254 13.993 12.2925 14.1259C12.1597 14.2587 11.9795 14.3333 11.7917 14.3333H7.54167C7.35381 14.3333 7.17364 14.2587 7.0408 14.1259C6.90796 13.993 6.83333 13.8129 6.83333 13.625Z" fill="#ACABA7"/>
</svg>
