<svg width="64" height="64" viewBox="0 0 64 64" fill="none" xmlns="http://www.w3.org/2000/svg">
<path d="M16.6 50.8333C20.5255 50.8333 23.8524 48.2917 26.1216 44.661C28.404 41.0091 29.7667 36.0575 29.7667 30.6667C29.7667 25.2759 28.404 20.3242 26.1216 16.6723C23.8524 13.0416 20.5255 10.5 16.6 10.5C12.6745 10.5 9.34764 13.0416 7.07844 16.6723C4.79603 20.3242 3.43335 25.2759 3.43335 30.6667C3.43335 36.0575 4.79603 41.0091 7.07844 44.661C9.34764 48.2917 12.6745 50.8333 16.6 50.8333Z" fill="white" stroke="#37352F" stroke-width="3"/>
<path d="M48.3334 50.8333C52.2589 50.8333 55.5858 48.2917 57.855 44.661C60.1374 41.0091 61.5001 36.0575 61.5001 30.6667C61.5001 25.2759 60.1374 20.3242 57.855 16.6723C55.5858 13.0416 52.2589 10.5 48.3334 10.5C44.4079 10.5 41.081 13.0416 38.8118 16.6723C36.5294 20.3242 35.1667 25.2759 35.1667 30.6667C35.1667 36.0575 36.5294 41.0091 38.8118 44.661C41.081 48.2917 44.4079 50.8333 48.3334 50.8333Z" fill="white" stroke="#37352F" stroke-width="3"/>
<circle cx="10.5333" cy="30.6666" r="6.53333" fill="#37352F"/>
<circle cx="42.2667" cy="30.6666" r="6.53333" fill="#37352F"/>
<circle cx="7.73337" cy="28.8" r="1.86667" fill="white"/>
<circle cx="39.4668" cy="28.8" r="1.86667" fill="white"/>
</svg>
